<?xml version="1.0" encoding="iso-8859-1"?>
<!-- Generator: Adobe Illustrator 19.0.0, SVG Export Plug-In . SVG Version: 6.00 Build 0)  -->
<svg version="1.1" id="Layer_1" xmlns="http://www.w3.org/2000/svg" xmlns:xlink="http://www.w3.org/1999/xlink" x="0px" y="0px"
	 viewBox="0 0 485 485" style="enable-background:new 0 0 485 485;" xml:space="preserve">
<path style="fill:#40596B;" d="M116,143.1H20.2C9,143.1,0,152.1,0,163.3v301.5C0,476,9,485,20.2,485H116c11.2,0,20.2-9,20.2-20.2
	V163.3C136.2,152.2,127.2,143.1,116,143.1z"/>
<circle style="fill:#F2F2F2;" cx="68.1" cy="419.9" r="25.3"/>
<path style="fill:#FFD15C;" d="M485,199.5v-3.3c0-20.5-16.6-37.1-37.1-37.1H295.2c22.4-30.7,35.6-68.4,35.6-109.1V38.7
	c0-21.4-17.3-38.7-38.7-38.7c-21.4,0-38.7,17.3-38.7,38.7v11.2c0,59.7-48.6,108.2-108.2,108.2c-2.8,0-5.6,0.3-8.3,0.9h-1.1
	c0.3,1.4,0.5,2.8,0.5,4.3v12.1v277.2v12.1c0,1.5-0.2,2.9-0.5,4.3h284.1c20.5,0,37.1-16.6,37.1-37.1v-3.3c0-20.5-16.6-37.1-37.1-37.1
	h10c20.5,0,37.1-16.6,37.1-37.1v-3.3c0-20.5-16.6-37.1-37.1-37.1h9.7c20.5,0,37.1-16.6,37.1-37.1v-3.3c0-20.5-16.6-37.1-37.1-37.1
	h8.4C468.4,236.6,485,219.9,485,199.5z"/>
<g>
</g>
<g>
</g>
<g>
</g>
<g>
</g>
<g>
</g>
<g>
</g>
<g>
</g>
<g>
</g>
<g>
</g>
<g>
</g>
<g>
</g>
<g>
</g>
<g>
</g>
<g>
</g>
<g>
</g>
</svg>
