<?xml version="1.0" encoding="iso-8859-1"?>
<!-- Generator: Adobe Illustrator 19.0.0, SVG Export Plug-In . SVG Version: 6.00 Build 0)  -->
<svg version="1.1" id="Layer_1" xmlns="http://www.w3.org/2000/svg" xmlns:xlink="http://www.w3.org/1999/xlink" x="0px" y="0px"
	 viewBox="0 0 508.025 508.025" style="enable-background:new 0 0 508.025 508.025;" xml:space="preserve">
<circle style="fill:#40596B;" cx="188.2" cy="188.2" r="188.2"/>
<path style="fill:#FFFFFF;" d="M188.2,34C103.1,34,34,103.1,34,188.2s69.2,154.2,154.2,154.2s154.2-69.2,154.2-154.2
	S273.2,34,188.2,34z"/>
<path style="fill:#84DBFF;" d="M188.2,67.9c-66.3,0-120.3,53.9-120.3,120.3s53.9,120.3,120.3,120.3s120.3-54,120.3-120.3
	S254.5,67.9,188.2,67.9z"/>
<path style="fill:#54C0EB;" d="M188.2,249.1c-33.6,0-60.9-27.3-60.9-60.9s27.3-60.9,60.9-60.9s60.9,27.3,60.9,60.9
	S221.8,249.1,188.2,249.1z"/>
<g>
	<path style="fill:#FFFFFF;" d="M135.5,185.4c-12,0-21.7-9.7-21.7-21.7s9.7-21.7,21.7-21.7s21.7,9.7,21.7,21.7
		S147.4,185.4,135.5,185.4z"/>
	<path style="fill:#FFFFFF;" d="M167.2,190.7c-5.5,0-10-4.5-10-10s4.5-10,10-10s10,4.5,10,10S172.7,190.7,167.2,190.7z"/>
</g>
<path style="fill:#FF7058;" d="M492.8,419.1L407.6,334c-20.3-20.3-53.3-20.3-73.6,0c-20.3,20.3-20.3,53.3,0,73.6l85.2,85.2
	c20.3,20.3,53.3,20.3,73.6,0l0,0C513.1,472.4,513.1,439.5,492.8,419.1z"/>
<path style="fill:#F1543F;" d="M334,334L334,334c5.5-5.5,11.9-9.4,18.7-12l-17-17c-9,11.4-19.3,21.7-30.7,30.7l17,17
	C324.5,345.9,328.5,339.4,334,334z"/>
<g>
</g>
<g>
</g>
<g>
</g>
<g>
</g>
<g>
</g>
<g>
</g>
<g>
</g>
<g>
</g>
<g>
</g>
<g>
</g>
<g>
</g>
<g>
</g>
<g>
</g>
<g>
</g>
<g>
</g>
</svg>
