<?xml version="1.0" encoding="iso-8859-1"?>
<!-- Generator: Adobe Illustrator 19.0.0, SVG Export Plug-In . SVG Version: 6.00 Build 0)  -->
<svg version="1.1" id="Layer_1" xmlns="http://www.w3.org/2000/svg" xmlns:xlink="http://www.w3.org/1999/xlink" x="0px" y="0px"
	 viewBox="0 0 507.9 507.9" style="enable-background:new 0 0 507.9 507.9;" xml:space="preserve">
<g>
	<path style="fill:#40596B;" d="M254,0c-3.1,0-5.6,2.5-5.6,5.6v30.5c0,3.1,2.5,5.6,5.6,5.6s5.6-2.5,5.6-5.6V5.6
		C259.6,2.5,257.1,0,254,0z"/>
	<path style="fill:#40596B;" d="M254,466.2c-3.1,0-5.6,2.5-5.6,5.6v30.5c0,3.1,2.5,5.6,5.6,5.6s5.6-2.5,5.6-5.6v-30.5
		C259.6,468.7,257.1,466.2,254,466.2z"/>
	<path style="fill:#40596B;" d="M156.8,19.3c-2.9,1.2-4.2,4.5-3.1,7.4l11.7,28.2c1.2,2.9,4.5,4.2,7.4,3.1c2.9-1.2,4.2-4.5,3.1-7.4
		l-11.7-28.2C163,19.5,159.7,18.1,156.8,19.3z"/>
	<path style="fill:#40596B;" d="M335.2,450.1c-2.9,1.2-4.2,4.5-3.1,7.4l11.7,28.2c1.2,2.9,4.5,4.2,7.4,3.1c2.9-1.2,4.2-4.5,3.1-7.4
		l-11.7-28.2C341.4,450.2,338.1,448.9,335.2,450.1z"/>
	<path style="fill:#40596B;" d="M74.4,74.4c-2.2,2.2-2.2,5.8,0,8L96,103.9c2.2,2.2,5.8,2.2,8,0s2.2-5.8,0-8L82.4,74.4
		C80.2,72.2,76.6,72.2,74.4,74.4z"/>
	<path style="fill:#40596B;" d="M404.1,404.1c-2.2,2.2-2.2,5.8,0,8l21.6,21.6c2.2,2.2,5.8,2.2,8,0s2.2-5.8,0-8L412,404.1
		C409.8,401.9,406.3,401.9,404.1,404.1z"/>
	<path style="fill:#40596B;" d="M19.3,156.8c-1.2,2.9,0.2,6.2,3.1,7.4l28.2,11.7c2.9,1.2,6.2-0.2,7.4-3.1c1.2-2.9-0.2-6.2-3.1-7.4
		l-28.2-11.7C23.8,152.6,20.5,153.9,19.3,156.8z"/>
	<path style="fill:#40596B;" d="M450.1,335.2c-1.2,2.9,0.2,6.2,3.1,7.4l28.2,11.7c2.9,1.2,6.2-0.2,7.4-3.1c1.2-2.9-0.2-6.2-3.1-7.4
		l-28.2-11.7C454.6,331,451.3,332.3,450.1,335.2z"/>
	<path style="fill:#40596B;" d="M0,254c0,3.1,2.5,5.6,5.6,5.6h30.5c3.1,0,5.6-2.5,5.6-5.6s-2.5-5.6-5.6-5.6H5.6
		C2.5,248.4,0,250.9,0,254z"/>
	<path style="fill:#40596B;" d="M466.2,254c0,3.1,2.5,5.6,5.6,5.6h30.5c3.1,0,5.6-2.5,5.6-5.6s-2.5-5.6-5.6-5.6h-30.5
		C468.7,248.4,466.2,250.9,466.2,254z"/>
	<path style="fill:#40596B;" d="M19.3,351.2c1.2,2.9,4.5,4.2,7.4,3.1l28.2-11.7c2.9-1.2,4.2-4.5,3.1-7.4c-1.2-2.9-4.5-4.2-7.4-3.1
		l-28.2,11.7C19.5,345,18.1,348.3,19.3,351.2z"/>
	<path style="fill:#40596B;" d="M450.1,172.8c1.2,2.9,4.5,4.2,7.4,3.1l28.2-11.7c2.9-1.2,4.2-4.5,3.1-7.4c-1.2-2.9-4.5-4.2-7.4-3.1
		l-28.2,11.7C450.2,166.6,448.9,169.9,450.1,172.8z"/>
	<path style="fill:#40596B;" d="M74.4,433.6c2.2,2.2,5.8,2.2,8,0L104,412c2.2-2.2,2.2-5.8,0-8s-5.8-2.2-8,0l-21.6,21.6
		C72.2,427.8,72.2,431.4,74.4,433.6z"/>
	<path style="fill:#40596B;" d="M404.1,103.9c2.2,2.2,5.8,2.2,8,0l21.6-21.6c2.2-2.2,2.2-5.8,0-8s-5.8-2.2-8,0L404.1,96
		C401.9,98.2,401.9,101.7,404.1,103.9z"/>
	<path style="fill:#40596B;" d="M156.8,488.7c2.9,1.2,6.2-0.2,7.4-3.1l11.7-28.2c1.2-2.9-0.2-6.2-3.1-7.4c-2.9-1.2-6.2,0.2-7.4,3.1
		l-11.7,28.2C152.6,484.2,153.9,487.5,156.8,488.7z"/>
	<path style="fill:#40596B;" d="M335.2,57.9c2.9,1.2,6.2-0.2,7.4-3.1l11.7-28.2c1.2-2.9-0.2-6.2-3.1-7.4s-6.2,0.2-7.4,3.1
		l-11.7,28.2C331,53.4,332.3,56.7,335.2,57.9z"/>
</g>
<path style="fill:#FF7058;" d="M329.2,122c-30.6,0-57.7,14.4-75.2,36.7c-17.5-22.3-44.7-36.7-75.2-36.7c-52.8,0-95.7,42.8-95.7,95.7
	c0,90.5,170.9,201.1,170.9,201.1s170.9-109.1,170.9-201.1C424.9,164.9,382.1,122,329.2,122z"/>
<g>
</g>
<g>
</g>
<g>
</g>
<g>
</g>
<g>
</g>
<g>
</g>
<g>
</g>
<g>
</g>
<g>
</g>
<g>
</g>
<g>
</g>
<g>
</g>
<g>
</g>
<g>
</g>
<g>
</g>
</svg>
