<svg height="512" viewBox="0 0 128 128" width="512" xmlns="http://www.w3.org/2000/svg"><g><g><path d="m64.867 41-30.753 11.92 30.753 11.92 30.753-11.92z" fill="#ffc100"/><path d="m34.114 52.92v37.728l30.753 11.92v-37.728z" fill="#ff9a00"/><path d="m64.867 102.568v-37.728l30.753-11.92v37.728z" fill="#ff6426"/><path d="m75.946 60.717v12.903l5.689-6.037 3.688 2.402v-12.903z" fill="#ffd2c8"/><path d="m75.946 60.717-30.849-12.054 9.145-3.545 31.081 11.964z" fill="#ffe5dc"/><circle cx="64.867" cy="39.711" fill="#01ff67" r="14.28"/><path d="m62.88 45.275a1.748 1.748 0 0 1 -1.13-.413l-4.513-3.814a1.75 1.75 0 1 1 2.26-2.673l3.348 2.825 7.355-6.6a1.75 1.75 0 1 1 2.34 2.6l-8.49 7.627a1.749 1.749 0 0 1 -1.17.448z" fill="#fff"/></g><g fill="#001465"><path d="m96.253 51.288-12.233-4.742a1.75 1.75 0 0 0 -1.266 3.264l8.024 3.11-5.677 2.2-9.408-3.62a16.006 16.006 0 0 0 -10.826-27.819 16.14 16.14 0 0 0 -2.675.223 1.75 1.75 0 0 0 .581 3.451 12.707 12.707 0 0 1 2.094-.174 12.525 12.525 0 1 1 -10.932 6.4 1.75 1.75 0 1 0 -3.051-1.715 15.927 15.927 0 0 0 -1.138 13.115l-16.264 6.3a1.75 1.75 0 0 0 0 3.264l29.635 11.494v33.974l-27.253-10.564v-30.074a1.75 1.75 0 0 0 -3.5 0v31.272a1.751 1.751 0 0 0 1.118 1.632l30.752 11.921a1.761 1.761 0 0 0 .633.118 1.741 1.741 0 0 0 .615-.126c.006 0 .013.01.018.008l11.079-4.3a1.75 1.75 0 1 0 -1.265-3.263l-8.7 3.37v-33.968l7.586-2.939v10.52a1.75 1.75 0 0 0 3.024 1.2l4.685-4.972 2.463 1.6a1.75 1.75 0 0 0 2.7-1.467v-6.61a1.75 1.75 0 1 0 -3.5 0v3.382l-.983-.64a1.751 1.751 0 0 0 -2.229.266l-2.66 2.832v-7.466l16.174-6.27v33.974l-6.409 2.484a1.75 1.75 0 0 0 1.262 3.267l7.526-2.918a1.75 1.75 0 0 0 1.117-1.632v-37.73a1.75 1.75 0 0 0 -1.117-1.632zm-43.989-1.7-2.342-.916 1.341-.519a16.21 16.21 0 0 0 1.001 1.432zm-7.169.956 22.935 8.956a1.75 1.75 0 1 0 1.27-3.257l-1.862-.728a15.864 15.864 0 0 0 4.809-1.59l7.999 3.075-15.379 5.96-25.911-10.04z"/><path d="m81.873 94.1-1.164.451a1.75 1.75 0 1 0 1.266 3.264l1.164-.451a1.75 1.75 0 0 0 -1.266-3.264z"/><path d="m56.392 29.968a1.747 1.747 0 0 0 1.04-.343q.262-.194.535-.375a1.75 1.75 0 1 0 -1.934-2.917c-.232.154-.46.313-.683.479a1.75 1.75 0 0 0 1.042 3.156z"/><path d="m57.03 38.582a1.75 1.75 0 0 0 .207 2.466l4.513 3.814a1.752 1.752 0 0 0 2.3-.035l8.487-7.627a1.75 1.75 0 1 0 -2.34-2.6l-7.352 6.6-3.345-2.825a1.75 1.75 0 0 0 -2.47.207z"/></g></g></svg>